# xmcd
#
# Track frame offsets: 
#        183
#        20858
#        45148
#        65643
#
# Disc length: 1148 seconds
#
# Revision: 1
# Processed by: cddbd v1.5.2PL0 Copyright (c) Steve Scherf et al.
# Submitted via: ExactAudioCopy v1.0b4
#
DISCID=2e047a04
DTITLE=Jennifer Miles / Take My Breath Away (Maxi-CD)
DYEAR=1992
DGENRE=Soundtrack
TTITLE0=Take My Breath Away (Radio Edit)
TTITLE1=Take My Breath Away (Maxi Version)
TTITLE2=Take My Breath Away (Effect-Dub Mix)
TTITLE3=Take My Breath Away (Karaoke Version)
EXTD=
EXTT0=
EXTT1=
EXTT2=
EXTT3=
PLAYORDER=
